# File created by Blade
# Date/Time:  Tue Apr 07 20:41:02 2015
# Frame Rate: 120.000 fps
#------------------------------------------------------
:FULLY-SPECIFIED
:DEGREES
1479
root 7.309917 34.285859 -5.745681 30.446095 -27.993686 -47.812459
Spine 6.451091 17.532371 29.863546
Head -9.773995 9.503452 5.523365
LeftShoulder -18.686694 31.549837 30.754640
LeftArm 56.566225 -70.849957 -61.409412
LeftForeArm 10.684962 0.000000 7.931449
LeftHand 12.449150 -0.000000 17.937092
LeftHandThumb1 -26.253704 0.000000 33.147579
RightShoulder 5.592409 25.609717 -23.688769
RightArm 27.064996 47.074427 71.487168
RightForeArm 59.482473 -0.000000 16.677332
RightHand 9.365885 0.000000 -16.275290
RightHandThumb1 -24.326973 -0.000000 -32.862282
LeftUpLeg -14.618756 12.891803 36.154843
LeftLeg 19.585983 -0.000000 -0.000000
LeftFoot -19.891983 12.904879 -26.896169
LeftToeBase 4.139566 -0.000000 -0.000000
RightUpLeg -73.494833 -45.808819 -16.814057
RightLeg 12.783267 -0.000000 -0.000000
RightFoot 42.445719 -17.513716 -0.497586
RightToeBase 23.941521 -0.000000 -0.000000
1480
root 7.312767 34.289243 -5.752982 30.345521 -27.884148 -47.586996
Spine 6.247596 17.554130 29.599243
Head -9.796152 9.351345 5.613196
LeftShoulder -18.721631 31.594489 30.624254
LeftArm 55.896562 -70.617433 -60.935638
LeftForeArm 10.684652 -0.000000 7.947518
LeftHand 12.209892 -0.000000 17.490709
LeftHandThumb1 -26.253704 0.000000 33.147579
RightShoulder 5.640777 25.659161 -23.769844
RightArm 27.049018 46.779560 71.426830
RightForeArm 59.226371 -0.000000 16.540875
RightHand 9.412022 -0.000000 -16.164414
RightHandThumb1 -24.326973 -0.000000 -32.862282
LeftUpLeg -14.574010 12.529136 35.941419
LeftLeg 19.164721 -0.000000 -0.000000
LeftFoot -20.117837 13.273362 -26.896185
LeftToeBase 5.276700 -0.000000 -0.000000
RightUpLeg -72.397815 -45.255699 -17.113838
RightLeg 12.912922 -0.000000 -0.000000
RightFoot 42.309049 -17.404764 -0.413289
RightToeBase 23.877673 -0.000000 -0.000000
1481
root 7.315395 34.299793 -5.759387 30.268385 -27.804222 -47.457938
Spine 6.106712 17.671175 29.411535
Head -9.837872 9.168736 5.720596
LeftShoulder -18.734885 31.632638 30.528837
LeftArm 55.376881 -70.386252 -60.658947
LeftForeArm 10.475008 0.000000 8.012047
LeftHand 12.179186 -0.000000 17.691230
LeftHandThumb1 -26.253704 0.000000 33.147579
RightShoulder 5.643284 25.704252 -23.814607
RightArm 27.067074 46.586097 71.355298
RightForeArm 58.760088 -0.000000 16.414527
RightHand 9.153621 -0.000000 -15.599513
RightHandThumb1 -24.326973 -0.000000 -32.862282
LeftUpLeg -14.500508 12.237762 35.852095
LeftLeg 18.780645 -0.000000 -0.000000
LeftFoot -20.195858 13.666408 -27.133851
LeftToeBase 4.957897 -0.000000 -0.000000
RightUpLeg -71.123815 -44.515116 -17.506830
RightLeg 12.936065 -0.000000 -0.000000
RightFoot 42.081314 -17.750830 -0.101539
RightToeBase 23.953887 -0.000000 -0.000000
1482
root 7.315010 34.314787 -5.768523 30.224413 -27.733655 -47.331647
Spine 5.931975 17.831621 29.182122
Head -9.866184 8.952100 5.933906
LeftShoulder -18.780948 31.750861 30.398186
LeftArm 55.387148 -70.258634 -60.858140
LeftForeArm 10.484375 -0.000000 8.022646
LeftHand 12.259534 0.000000 17.662004
LeftHandThumb1 -26.253704 0.000000 33.147579
RightShoulder 5.641699 25.733803 -23.858832
RightArm 26.898088 46.309543 71.155103
RightForeArm 58.654702 -0.000000 16.450728
RightHand 9.102530 -0.000000 -15.220057
RightHandThumb1 -24.326973 -0.000000 -32.862282
LeftUpLeg -14.483743 12.042620 35.781308
LeftLeg 18.460696 -0.000000 -0.000000
LeftFoot -20.228544 14.082839 -27.349174
LeftToeBase 4.074811 -0.000000 -0.000000
RightUpLeg -69.889500 -43.709372 -17.928489
RightLeg 13.035377 -0.000000 -0.000000
RightFoot 41.862962 -17.785451 0.113072
RightToeBase 23.952422 -0.000000 -0.000000
1483
root 7.309756 34.333500 -5.776983 30.178589 -27.676008 -47.221599
Spine 5.760013 18.012368 28.936609
Head -9.874831 8.760236 6.186427
LeftShoulder -18.825102 31.848431 30.288369
LeftArm 55.340870 -70.114294 -60.959531
LeftForeArm 10.437759 -0.000000 8.018972
LeftHand 12.096548 -0.000000 17.609061
LeftHandThumb1 -26.253704 0.000000 33.147579
RightShoulder 5.620282 25.758473 -23.855950
RightArm 26.728514 46.055771 70.935713
RightForeArm 58.428460 -0.000000 16.521763
RightHand 9.025240 -0.000000 -14.822900
RightHandThumb1 -24.326973 -0.000000 -32.862282
LeftUpLeg -14.449314 11.949255 35.717014
LeftLeg 18.153091 -0.000000 -0.000000
LeftFoot -20.203192 14.483806 -27.496659
LeftToeBase 3.005702 -0.000000 -0.000000
RightUpLeg -68.720848 -42.882989 -18.246760
RightLeg 13.100158 -0.000000 -0.000000
RightFoot 41.643600 -17.953858 0.445623
RightToeBase 24.203225 -0.000000 -0.000000
